<svg width="186" height="160" viewBox="0 0 186 160" fill="none" xmlns="http://www.w3.org/2000/svg">
<g clip-path="url(#clip0_1_7)">
<path d="M-44.1025 93.8648L-44.8608 94.0973C-59.3955 98.5546 -69.6682 111.524 -70.6795 126.693L-72.8715 159.573C-74.5646 184.969 -54.4214 206.5 -28.969 206.5H194.5C218.801 206.5 238.5 186.801 238.5 162.5V119.281C238.5 108.499 232.061 98.7575 222.141 94.5321C215.348 91.6388 207.664 91.6648 200.89 94.6042L197.278 96.172C189.357 99.6094 180.465 100.09 172.219 97.5276L161.633 94.2374C152.772 91.4831 143.266 91.6011 134.476 94.5743L129.031 96.416C119.316 99.7018 108.76 99.4911 99.1839 95.8205L98.1557 95.4263C88.9832 91.9102 78.8978 91.5647 69.5062 94.4448L57.8935 98.006C50.5936 100.245 42.7055 99.5165 35.9387 95.9793C28.6567 92.1728 20.1025 91.6313 12.3987 94.4892L6.94132 96.5137C-1.66411 99.706 -11.1859 99.3445 -19.5245 95.5087C-27.2372 91.9609 -35.9859 91.3757 -44.1025 93.8648Z" fill="url(#paint0_linear_1_7)"/>
<path d="M-66.1025 109.865L-66.8608 110.097C-81.3955 114.555 -91.6683 127.524 -92.6795 142.693L-94.8715 175.573C-96.5646 200.969 -76.4214 222.5 -50.969 222.5H172.5C196.801 222.5 216.5 202.8 216.5 178.5V135.281C216.5 124.498 210.061 114.758 200.141 110.532C193.348 107.639 185.664 107.665 178.89 110.604L175.278 112.172C167.357 115.609 158.465 116.09 150.219 113.528L139.633 110.237C130.772 107.483 121.266 107.601 112.476 110.574L107.031 112.416C97.3165 115.702 86.7595 115.491 77.1839 111.82L76.1557 111.426C66.9832 107.91 56.8978 107.565 47.5061 110.445L35.8935 114.006C28.5935 116.245 20.7055 115.516 13.9387 111.979C6.65669 108.173 -1.8975 107.631 -9.60133 110.489L-15.0587 112.514C-23.6641 115.706 -33.1859 115.344 -41.5245 111.509C-49.2372 107.961 -57.986 107.376 -66.1025 109.865Z" fill="url(#paint1_linear_1_7)"/>
<path d="M-66.1025 129.365L-66.8608 129.597C-81.3955 134.055 -91.6683 147.024 -92.6795 162.193L-94.8715 195.073C-96.5646 220.469 -76.4214 242 -50.969 242H172.5C196.801 242 216.5 222.3 216.5 198V154.781C216.5 143.998 210.061 134.258 200.141 130.032C193.348 127.139 185.664 127.165 178.89 130.104L175.278 131.672C167.357 135.109 158.465 135.59 150.219 133.028L139.633 129.737C130.772 126.983 121.266 127.101 112.476 130.074L107.031 131.916C97.3165 135.202 86.7595 134.991 77.1839 131.32L76.1557 130.926C66.9832 127.41 56.8978 127.065 47.5061 129.945L35.8935 133.506C28.5935 135.745 20.7055 135.016 13.9387 131.479C6.65669 127.673 -1.8975 127.131 -9.60133 129.989L-15.0587 132.014C-23.6641 135.206 -33.1859 134.844 -41.5245 131.009C-49.2372 127.461 -57.986 126.876 -66.1025 129.365Z" fill="url(#paint2_linear_1_7)"/>
</g>
<defs>
<linearGradient id="paint0_linear_1_7" x1="81.25" y1="90" x2="81.25" y2="206.5" gradientUnits="userSpaceOnUse">
<stop stop-color="#B3F59C"/>
<stop offset="1" stop-color="#30EF00"/>
</linearGradient>
<linearGradient id="paint1_linear_1_7" x1="59.25" y1="106" x2="59.25" y2="222.5" gradientUnits="userSpaceOnUse">
<stop stop-color="#79E437" stop-opacity="0.8"/>
<stop offset="1" stop-color="#1D8104"/>
</linearGradient>
<linearGradient id="paint2_linear_1_7" x1="59.25" y1="125.5" x2="59.25" y2="242" gradientUnits="userSpaceOnUse">
<stop stop-color="#2CAC0C" stop-opacity="0.5"/>
<stop offset="1" stop-color="#147900"/>
</linearGradient>
<clipPath id="clip0_1_7">
<rect width="186" height="160" fill="white"/>
</clipPath>
</defs>
</svg>
